<svg width="24" height="24" viewBox="0 0 24 24" fill="none" xmlns="http://www.w3.org/2000/svg">
<path d="M16.1601 8.09179C15.8579 7.80781 15.3676 7.80777 15.0653 8.09174C14.763 8.37577 14.7629 8.83623 15.0653 9.12025L17.3565 11.2728H7.87098C7.44343 11.2728 7.0968 11.5984 7.0968 12.0001C7.0968 12.4017 7.44343 12.7273 7.87098 12.7273H17.3564L15.0653 14.8797C14.7629 15.1637 14.7629 15.6242 15.0653 15.9082C15.2165 16.0502 15.4146 16.1212 15.6127 16.1212C15.8109 16.1212 16.009 16.0502 16.1601 15.9082L19.7728 12.5143C20.0752 12.2304 20.0752 11.7699 19.7728 11.4858L16.1601 8.09179Z" fill="white"/>
<path d="M11.4837 20C11.9113 20 12.2579 19.6744 12.2579 19.2727C12.2579 18.8711 11.9113 18.5455 11.4837 18.5455H5.54835V5.45455H11.4837C11.9113 5.45455 12.2579 5.12892 12.2579 4.72727C12.2579 4.32562 11.9113 4 11.4837 4H4.77418C4.34662 4 4 4.32562 4 4.72727V19.2727C4 19.6744 4.34662 20 4.77418 20H11.4837Z" fill="white"/>
</svg>
